# xmcd CD database file
#
# Track frame offsets:
#	150
#	11238
#	21490
#	34735
#	43428
#	54448
#	63578
#	72750
#	106053
#	118133
#	128325
#	138643
#	153225
#	161950
#	178065
#	187363
#
# Disc length: 2624 seconds
#
# Revision: 3
# Processed by: cddbd v1.5.2PL0 Copyright (c) Steve Scherf et al.
# Submitted via: CDex 1.51
#
DISCID=ef0a3e10
DTITLE=Loretta Lynn - Her Country Hits Show
DYEAR=1992
DGENRE=Country
TTITLE0=Hey Loretta
TTITLE1=You're Looking At The Country
TTITLE2=Let Your Love Flow
TTITLE3=We've Come A Long Way Baby
TTITLE4=Spring Fever
TTITLE5=Your Squaw Is On The Warpath
TTITLE6=First City
TTITLE7=Medley (I Fall To Pieces, Walking After Midnight, Crasy, Back In Baby's Arms, She's Got You)
TTITLE8=Me And Bobby McGee
TTITLE9=Somebody Somewhere
TTITLE10=Out Of My Head And Back In My Bed
TTITLE11=Coal Miner's Daughter
TTITLE12=They Don't Make 'Em Like Daddy Anymore
TTITLE13=The Pill
TTITLE14=You'll Come
TTITLE15=You Ain't Woman Enough
EXTD=YEAR: 1992
EXTT0=
EXTT1=
EXTT2=
EXTT3=
EXTT4=
EXTT5=
EXTT6=
EXTT7=
EXTT8=
EXTT9=
EXTT10=
EXTT11=
EXTT12=
EXTT13=
EXTT14=
EXTT15=
PLAYORDER=
